<?xml version="1.0" encoding="UTF-8" standalone="no" ?>
<!DOCTYPE svg PUBLIC "-//W3C//DTD SVG 1.1//EN" "http://www.w3.org/Graphics/SVG/1.1/DTD/svg11.dtd">
<svg xmlns="http://www.w3.org/2000/svg" xmlns:xlink="http://www.w3.org/1999/xlink" version="1.1" width="500" height="500" viewBox="0 0 500 500" xml:space="preserve">
<desc>Created with Fabric.js 4.6.0</desc>
<defs>
</defs>
<g transform="matrix(1.76 0 0 1.76 250.26 250)" id="5bh3pNsoHByOaq-nhQHIJ"  >
<g style="" vector-effect="non-scaling-stroke"   >
		<g transform="matrix(1 0 0 1 -95.13 0)" id="Yjonj2_x27Gqu1LiQPSm3"  >
<path style="stroke: none; stroke-width: 1; stroke-dasharray: none; stroke-linecap: butt; stroke-dashoffset: 0; stroke-linejoin: miter; stroke-miterlimit: 4; fill: rgb(46,111,242); fill-rule: nonzero; opacity: 1;" vector-effect="non-scaling-stroke"  transform=" translate(-466.91, -494.08)" d="M 453.41 568.17 L 420.41 568.17 L 420.41 420 L 513.4100000000001 420 L 510.61000000000007 445 L 453.4100000000001 445 L 453.4100000000001 478.4 L 499.81000000000006 478.4 L 499.81000000000006 503.79999999999995 L 453.4100000000001 503.79999999999995 Z" stroke-linecap="round" />
</g>
		<g transform="matrix(1 0 0 1 41.53 0)" id="uNU0tjTZ8ID4eovO_DU-a"  >
<path style="stroke: none; stroke-width: 1; stroke-dasharray: none; stroke-linecap: butt; stroke-dashoffset: 0; stroke-linejoin: miter; stroke-miterlimit: 4; fill: rgb(46,111,242); fill-rule: nonzero; opacity: 1;" vector-effect="non-scaling-stroke"  transform=" translate(-923.3, -494.08)" d="M 979.6 568.17 L 951.6 568.17 L 923.4 467.36999999999995 L 895 568.17 L 867 568.17 Q 855.6 531.17 844.6 494.06999999999994 Q 833.6 456.9699999999999 823.2 420 L 856.2 420 Q 862.6 444.6 869 469 Q 875.4 493.4 882.2 517.8 L 908.6 424.19999999999993 L 939.2 424.19999999999993 L 965.6 517.5999999999999 Q 972.2 492.9999999999999 978.8000000000001 468.69999999999993 Q 985.4000000000001 444.4 991.8000000000001 419.99999999999994 L 1023.4000000000001 419.99999999999994 Q 1013.0100000000001 456.99999999999994 1002.0000000000001 494.0999999999999 Q 990.9900000000001 531.1999999999998 979.6 568.17 Z" stroke-linecap="round" />
</g>
</g>
</g>
</svg>