<?xml version="1.0" encoding="UTF-8"?>
<svg id="Layer_1" data-name="Layer 1" xmlns="http://www.w3.org/2000/svg" viewBox="0 0 441 126">
  <defs>
    <style>
      .cls-1 {
        stroke-miterlimit: 10;
      }

      .cls-1, .cls-2 {
        fill: none;
        stroke: #2e6ff2;
        stroke-width: 6px;
      }

      .cls-2 {
        stroke-linecap: round;
        stroke-linejoin: round;
      }

      .cls-3 {
        fill: #2e6ff2;
        stroke-width: 0px;
      }
    </style>
  </defs>
  <g>
    <path class="cls-1" d="M24.70754,87.5227v-28.05573c0-2.51806,1.18555-4.88916,3.2-6.4l28-21c2.84444-2.13333,6.75556-2.13333,9.6,0l28,21c2.01445,1.51084,3.2,3.88194,3.2,6.4v28.05573c0,5.94706-6.2585,9.81502-11.57771,7.15542l-20.84458-10.42229c-2.25222-1.12611-4.9032-1.12611-7.15542,0l-20.84458,10.42229c-5.31921,2.6596-11.57771-1.20836-11.57771-7.15542Z"/>
    <path class="cls-2" d="M42.70754,91.46698l7.53553-7.53553c.93768-.93768,1.46447-2.20945,1.46447-3.53553v-19.92893c0-2.76142,2.23858-5,5-5h8c2.76142,0,5,2.23858,5,5v19.92893c0,1.32608.52678,2.59785,1.46447,3.53553l7.53553,7.53553"/>
  </g>
  <g>
    <path class="cls-3" d="M124.7671,91.5c-1.64746,0-2.91504-.45508-3.80273-1.36523-.88867-.91016-1.33203-2.23145-1.33203-3.96484v-35.81445c0-1.69043.45508-2.99023,1.36523-3.90039.90918-.91016,2.20996-1.36523,3.89941-1.36523h22.23047c1.2998,0,2.28516.33643,2.95703,1.00781.67188.67285,1.00781,1.63672,1.00781,2.89258,0,1.2998-.33594,2.28613-1.00781,2.95801s-1.65723,1.00684-2.95703,1.00684h-17.41992v11.18066h15.98926c1.30078,0,2.29688.33594,2.99023,1.00684.69238.67285,1.04004,1.63672,1.04004,2.89258,0,1.25781-.34766,2.23242-1.04004,2.9248-.69336.69434-1.68945,1.04004-2.99023,1.04004h-15.98926v14.16992c0,3.55371-1.64746,5.33008-4.94043,5.33008Z"/>
    <path class="cls-3" d="M169.9419,91.62988c-3.85742,0-6.73926-1.07227-8.64551-3.21777-1.90723-2.14453-2.86035-5.33984-2.86035-9.58691v-29.31445c0-1.64648.42285-2.89258,1.26758-3.73828.8457-.84473,2.06934-1.26758,3.67285-1.26758,1.55957,0,2.7627.42285,3.60742,1.26758.84473.8457,1.26758,2.0918,1.26758,3.73828v28.9248c0,1.77734.37891,3.08691,1.1377,3.93164.75781.8457,1.76465,1.26758,3.02246,1.26758.34668,0,.6709-.02148.97461-.06445.30273-.04297.62793-.06543.97559-.06543.69238-.08594,1.17969.12012,1.46191.61719.28125.49902.42285,1.48535.42285,2.95801,0,1.2998-.25977,2.28613-.78027,2.95703-.51953.67285-1.32227,1.11523-2.40527,1.33301-.43359.04297-.93164.09766-1.49414.16211-.56445.06543-1.10547.09766-1.625.09766Z"/>
    <path class="cls-3" d="M196.33057,91.62988c-3.76953,0-7.00977-.68262-9.7168-2.04688-2.70898-1.36523-4.78906-3.29297-6.24023-5.78516-1.45215-2.49121-2.17773-5.42773-2.17773-8.80762,0-3.29297.69238-6.18555,2.08008-8.67773,1.38672-2.49121,3.3252-4.44141,5.81738-5.84961,2.49121-1.4082,5.31934-2.1123,8.48242-2.1123,2.29688,0,4.37695.37988,6.24023,1.13672,1.8623.75879,3.46582,1.84277,4.80957,3.25,1.34277,1.40918,2.36133,3.12012,3.05566,5.13574.69238,2.01465,1.04004,4.25684,1.04004,6.72754,0,.82324-.26074,1.44043-.78027,1.85254-.52051.41211-1.27832.61719-2.27539.61719h-20.41016v-5.07031h16.38086l-1.04004.91016c0-1.77637-.26074-3.25977-.78027-4.45215-.52051-1.19141-1.26758-2.09082-2.24219-2.69727-.97559-.60645-2.17773-.91016-3.60742-.91016-1.60449,0-2.96875.36816-4.0957,1.10449-1.12695.7373-1.99316,1.79883-2.59961,3.18555-.60742,1.38672-.91016,3.05469-.91016,5.00488v.51953c0,3.29395.76855,5.7207,2.30762,7.28027,1.53711,1.55957,3.82324,2.33984,6.85742,2.33984,1.04004,0,2.23145-.12988,3.5752-.38965,1.34277-.26074,2.59961-.67188,3.76953-1.23535.99609-.47656,1.88477-.63867,2.66504-.4873.78027.15234,1.38672.50977,1.82031,1.07227.43262.56348.68262,1.21387.74707,1.9502.06543.7373-.09766,1.46191-.4873,2.17676-.38965.71582-1.04004,1.31152-1.9502,1.78809-1.47363.82324-3.13086,1.44141-4.97266,1.85254s-3.62891.61719-5.3623.61719Z"/>
    <path class="cls-3" d="M218.6919,91.37012c-1.21387,0-2.18945-.33594-2.92578-1.00781-.7373-.6709-1.11621-1.52734-1.13672-2.56738-.02246-1.04004.39941-2.10156,1.26758-3.18457l10.07422-12.34961v4.41992l-9.35938-11.44043c-.91016-1.12598-1.34375-2.20996-1.30078-3.25s.43359-1.88477,1.1709-2.53516c.73633-.64941,1.71094-.97461,2.9248-.97461,1.16992,0,2.14453.19434,2.9248.58496.78027.38965,1.5166,1.04004,2.20996,1.9502l6.95508,8.9043h-3.44531l6.95508-8.9043c.73633-.91016,1.49512-1.56055,2.27539-1.9502.7793-.39062,1.73242-.58496,2.85938-.58496,1.21289,0,2.18848.33594,2.92578,1.00684.73633.67285,1.11523,1.52832,1.13672,2.56836s-.42188,2.10156-1.33203,3.18457l-9.36035,11.44043v-4.41992l10.14062,12.34961c.90918,1.04004,1.34277,2.08008,1.2998,3.12012-.04395,1.04004-.44531,1.90723-1.20312,2.59961s-1.74414,1.04004-2.95703,1.04004c-1.16992,0-2.13477-.20605-2.89258-.61719-.75879-.41211-1.50586-1.05078-2.24219-1.91797l-7.60547-9.68457h3.31543l-7.60547,9.68457c-.69336.82422-1.41992,1.45215-2.17676,1.88477-.75879.43262-1.72266.65039-2.89258.65039Z"/>
    <path class="cls-3" d="M269.45557,91.5c-1.3877,0-2.51367-.33594-3.37988-1.00781-.86719-.6709-1.56055-1.7002-2.08008-3.08691l-13.12988-36.91992c-.56348-1.64648-.44531-3.05469.35742-4.22461.80078-1.1709,2.19824-1.75586,4.19238-1.75586,1.38672,0,2.45898.3252,3.21777.9751.75781.6499,1.375,1.66943,1.85254,3.05518l10.72461,31.91504h-2.79492l11.30957-31.84961c.52051-1.38672,1.15918-2.41504,1.91797-3.08789.75781-.67139,1.76465-1.00781,3.02246-1.00781,1.21289,0,2.1875.33643,2.9248,1.00781.73633.67285,1.36523,1.72266,1.88477,3.15234l10.79004,31.78516h-2.4043l10.91992-31.91504c.43262-1.34277,1.04004-2.34961,1.81934-3.02246.78027-.67139,1.8418-1.00781,3.18555-1.00781,1.68945,0,2.9248.58496,3.70508,1.75586.7793,1.16992.86621,2.57812.25977,4.22461l-13.25977,36.98438c-.47754,1.34375-1.12793,2.35156-1.9502,3.02246-.82324.67188-1.9502,1.00781-3.37988,1.00781-1.3877,0-2.49219-.33594-3.31543-1.00781-.82324-.6709-1.49512-1.7002-2.01465-3.08691l-10.27051-29.05469h1.56055l-10.40039,29.11914c-.51953,1.34375-1.18066,2.35156-1.98242,3.02246-.80176.67188-1.89551,1.00781-3.28223,1.00781Z"/>
    <path class="cls-3" d="M332.96143,91.62988c-2.6875,0-4.91895-.49805-6.69531-1.49512-1.77734-.99609-3.08691-2.50195-3.93262-4.51758-.84473-2.01465-1.26758-4.51758-1.26758-7.50684v-14.69043c0-1.64551.42285-2.88086,1.26758-3.70508.8457-.82227,2.04785-1.23438,3.60742-1.23438,1.56055,0,2.77344.41211,3.64062,1.23438.86621.82422,1.2998,2.05957,1.2998,3.70508v14.9502c0,1.90723.38965,3.32617,1.16992,4.25781s2.01465,1.39746,3.70508,1.39746c1.8623,0,3.38965-.66016,4.58203-1.98242,1.19141-1.32129,1.78809-3.06543,1.78809-5.23242v-13.39062c0-1.64551.42188-2.88086,1.26758-3.70508.84473-.82227,2.04688-1.23438,3.60742-1.23438,1.60254,0,2.82715.41211,3.67188,1.23438.8457.82422,1.26758,2.05957,1.26758,3.70508v23.0752c0,3.33691-1.58203,5.00488-4.74512,5.00488-1.55957,0-2.75195-.43359-3.57422-1.2998-.82422-.86621-1.23535-2.10156-1.23535-3.70508v-4.35547l.97461,2.53516c-.95312,2.20996-2.31836,3.92285-4.09473,5.13477-1.77734,1.21289-3.87891,1.82031-6.30469,1.82031Z"/>
    <path class="cls-3" d="M364.61573,91.5c-1.64746,0-2.90332-.43359-3.76953-1.2998-.86719-.86621-1.30078-2.10156-1.30078-3.70508v-23.0752c0-1.60254.42285-2.82715,1.26758-3.67188.8457-.8457,2.02539-1.26758,3.54297-1.26758,1.55957,0,2.75098.42188,3.5752,1.26758.82227.84473,1.23438,2.06934,1.23438,3.67188v3.37988h-.64941c.51953-2.59961,1.66699-4.61426,3.44434-6.04492,1.77637-1.42969,4.07324-2.23047,6.89062-2.4043,1.08203-.08691,1.91699.18457,2.50195.8125s.89941,1.65723.94238,3.08691c.08691,1.34375-.18457,2.40527-.8125,3.18555-.62793.7793-1.67969,1.25684-3.15234,1.42969l-1.49512.12988c-2.46973.21777-4.30078.93262-5.49219,2.14551-1.19238,1.21289-1.78711,2.96875-1.78711,5.26465v12.08984c0,1.60352-.42285,2.83887-1.26758,3.70508s-2.07031,1.2998-3.67285,1.2998Z"/>
    <path class="cls-3" d="M390.02979,91.37012c-1.21387,0-2.18945-.33594-2.92578-1.00781-.7373-.6709-1.11621-1.52734-1.13672-2.56738-.02246-1.04004.39941-2.10156,1.26758-3.18457l10.07422-12.34961v4.41992l-9.35938-11.44043c-.91016-1.12598-1.34375-2.20996-1.30078-3.25s.43359-1.88477,1.1709-2.53516c.73633-.64941,1.71094-.97461,2.9248-.97461,1.16992,0,2.14453.19434,2.9248.58496.78027.38965,1.5166,1.04004,2.20996,1.9502l6.95508,8.9043h-3.44531l6.95508-8.9043c.73633-.91016,1.49512-1.56055,2.27539-1.9502.7793-.39062,1.73242-.58496,2.85938-.58496,1.21289,0,2.18848.33594,2.92578,1.00684.73633.67285,1.11523,1.52832,1.13672,2.56836s-.42188,2.10156-1.33203,3.18457l-9.36035,11.44043v-4.41992l10.14062,12.34961c.90918,1.04004,1.34277,2.08008,1.2998,3.12012-.04395,1.04004-.44531,1.90723-1.20312,2.59961s-1.74414,1.04004-2.95703,1.04004c-1.16992,0-2.13477-.20605-2.89258-.61719-.75879-.41211-1.50586-1.05078-2.24219-1.91797l-7.60547-9.68457h3.31543l-7.60547,9.68457c-.69336.82422-1.41992,1.45215-2.17676,1.88477-.75879.43262-1.72266.65039-2.89258.65039Z"/>
  </g>
</svg>